<svg xmlns="http://www.w3.org/2000/svg" viewBox="0 0 66.76 70.59"><defs><style>.cls-1{fill:#f0e9ce;}.cls-2{fill:#004a6b;}</style></defs><g id="Layer_2" data-name="Layer 2"><g id="Layer_1-2" data-name="Layer 1"><path class="cls-1" d="M61.25,39c-23.81,15.16-17.84,31.17-34,31.17S15.8,60.61,2.81,39C-8.26,20.51,15.89,0,32,0S79.41,27.41,61.25,39Z"/><polygon class="cls-2" points="21.07 38.39 27.11 38.39 29.63 70.59 25.88 70.59 21.07 38.39"/><polygon class="cls-2" points="55.28 38.39 49.24 38.39 46.72 70.59 50.47 70.59 55.28 38.39"/><polygon class="cls-2" points="30.26 38.39 36.66 38.39 36.66 70.59 32.92 70.59 30.26 38.39"/><polygon class="cls-2" points="46.12 38.39 39.72 38.39 39.72 70.59 43.46 70.59 46.12 38.39"/><path class="cls-2" d="M27.82,36.47s26.73,0,26.73,0a3,3,0,0,0-2.19-2.73s0-.08,0-.13a3.05,3.05,0,0,0-1.58-2.67,3.44,3.44,0,0,0-3.41-4l-.34,0a5.23,5.23,0,0,0-10.3.72,2.47,2.47,0,0,0-.54,0,2.91,2.91,0,0,0-1.19.24,3,3,0,0,0-5.88.88c0,.12,0,.24,0,.35a3.37,3.37,0,0,0-4.87,3,3.47,3.47,0,0,0,.27,1.33A2.89,2.89,0,0,0,22,36.3v.17Z"/></g></g></svg>