<svg xmlns="http://www.w3.org/2000/svg" viewBox="0 0 71.04 66.25"><defs><style>.cls-1{fill:#efe2ac;}.cls-2{fill:#004a6b;}</style></defs><g id="Layer_2" data-name="Layer 2"><g id="Layer_1-2" data-name="Layer 1"><path class="cls-1" d="M71,40c0,21.38-3.64,11.16-23.49,19.11C8.39,74.8,0,62.68,0,41.3S20.62-8.8,38.72,2.58C60.91,16.53,71,18.64,71,40Z"/><path class="cls-2" d="M60,42.32l-5.13,8.45L38.36,22,24.06,46.35,16.32,32.89.72,59.81H70.15ZM38.3,28.8l4.35,7.93L41,41.35l-4.81-4.62-1.63,5.14-2.43-2ZM18.4,56.36H6.31l10-17.68L22.37,49Zm38.23-2.6L60,48l5.46,9.16h-6.7Z"/></g></g></svg>