<svg xmlns="http://www.w3.org/2000/svg" viewBox="0 0 67.21 65.36"><defs><style>.cls-1{fill:#f4d0ab;}.cls-2{fill:#004a6b;}</style></defs><g id="Layer_2" data-name="Layer 2"><g id="Layer_1-2" data-name="Layer 1"><path class="cls-1" d="M46,38.93c0,21.39,35,12.92,15.11,20.86C22,75.45,0,55.32,0,33.93S34.18-8.15,52.28,3.23C74.46,17.19,46,17.55,46,38.93Z"/><rect class="cls-2" x="14.47" y="58.22" width="52.27" height="4.34"/><path class="cls-2" d="M19.2,31.24V57.35H30.08V31.24Zm7.71,23.1H22.29V49.72h4.62Zm0-7.61H22.29V42.11h4.62Zm0-7.49H22.29V34.62h4.62Z"/><path class="cls-2" d="M50.67,31.24V57.35H61.16V31.24Zm7.56,23.1H53.6V49.72h4.63Zm0-7.61H53.6V42.11h4.63Zm0-7.49H53.6V34.62h4.63Z"/><path class="cls-2" d="M31.45,24.93V57.35h17.8V24.93Zm7.34,27H34.17V47.28h4.62Zm0-9.06H34.17V38.22h4.62Zm0-9.25H34.17V29h4.62ZM46.05,51.9H41.43V47.28h4.62Zm0-9.06H41.43V38.22h4.62Zm0-9.25H41.43V29h4.62Z"/></g></g></svg>