<svg xmlns="http://www.w3.org/2000/svg" viewBox="0 0 62.97 68.61"><defs><style>.cls-1{fill:#aee0e8;}.cls-2{fill:#004a6b;}</style></defs><g id="Layer_2" data-name="Layer 2"><g id="Layer_1-2" data-name="Layer 1"><path class="cls-1" d="M55,34.9C24.32,47.54,56.62,68.61,36.47,68.61S0,53.25,0,34.3,16.33,0,36.47,0,73.48,27.31,55,34.9Z"/><path class="cls-2" d="M38.31,56a1.1,1.1,0,0,0,1.1-1.1v-2a1.09,1.09,0,0,0-1.1-1.09h-2a1.09,1.09,0,0,0-1.09,1.09v2A1.09,1.09,0,0,0,36.35,56Zm-2.15-1.1v-2a.19.19,0,0,1,.19-.19h2a.19.19,0,0,1,.19.19v2a.19.19,0,0,1-.19.2h-2A.19.19,0,0,1,36.16,54.85Zm12-2.54a78.36,78.36,0,0,1-7.53,2.24v.82A1.68,1.68,0,0,1,39,57.05H36a1.68,1.68,0,0,1-1.67-1.68V54.6a75.24,75.24,0,0,1-7.82-2.29,56,56,0,0,0-6.83-2,4.23,4.23,0,0,1-1.84-.79V61.39c0,1.59.93,2.88,2.09,2.88H54.75c1.15,0,2.08-1.29,2.08-2.88V49.53a4.23,4.23,0,0,1-1.84.79A56.17,56.17,0,0,0,48.2,52.31Zm6.55-14.64H51v-.49a.33.33,0,0,0-.33-.33h-2.4a.33.33,0,0,0-.33.33v.49H26.71v-.49a.33.33,0,0,0-.33-.33H24a.33.33,0,0,0-.33.33v.49H19.92A2.2,2.2,0,0,0,17.83,40v6.61a2.34,2.34,0,0,0,2.09,2.3c3.28.56,8.83,2.81,13.27,4L34,53v-.63a1.68,1.68,0,0,1,1.68-1.67h3a1.68,1.68,0,0,1,1.68,1.67v.74l1.12-.25c4.43-1.14,10-3.41,13.28-4a2.35,2.35,0,0,0,2.08-2.3V40A2.2,2.2,0,0,0,54.75,37.67ZM32.86,34.09H41.8V36.9h2.36v-3A2.19,2.19,0,0,0,42,31.74H32.69a2.18,2.18,0,0,0-2.18,2.19v3h2.35Z"/></g></g></svg>