<svg xmlns="http://www.w3.org/2000/svg" viewBox="0 0 59.78 60.26"><defs><style>.cls-1{fill:#f4d0ab;}.cls-2{fill:#004a6b;}</style></defs><g id="Layer_2" data-name="Layer 2"><g id="Layer_1-2" data-name="Layer 1"><path class="cls-1" d="M52.24,33.23C31.93,46.15,37,59.81,23.26,59.81S13.47,51.69,2.39,33.23C-7,17.49,13.55,0,27.32,0S67.72,23.38,52.24,33.23Z"/><path class="cls-2" d="M34.33,50.71,23.59,47.46a3.54,3.54,0,0,0-4.17,3.3h0a3.55,3.55,0,0,0,3.53,4L33.69,58l.69,2.26-12.5-3.4c-3.21-.28-5.19-3.09-4.91-6.3h0c.28-3.22,2.72-5.63,5.93-5.35l12.49,3.4Z"/><path class="cls-2" d="M34.3,41.16,23.57,37.91a3.57,3.57,0,0,0-4.18,3.31h0a3.55,3.55,0,0,0,3.54,4l10.74,3.25.68,2.27L21.86,47.3c-3.22-.28-5.2-3.08-4.92-6.3h0a5.53,5.53,0,0,1,5.94-5.35l12.49,3.41Z"/><path class="cls-2" d="M59.68,52.85a1.1,1.1,0,0,1-.9,1.27L34.52,60.25a1.11,1.11,0,0,1-1.29-.89h0a1.11,1.11,0,0,1,.91-1.27L58.4,52a1.1,1.1,0,0,1,1.28.89Z"/><path class="cls-2" d="M59.65,43.52a1.1,1.1,0,0,1-.9,1.27l-24.27,5.9a1.1,1.1,0,0,1-1.28-.89h0a1.1,1.1,0,0,1,.9-1.27l24.27-5.89a1.1,1.1,0,0,1,1.28.88Z"/><path class="cls-2" d="M59.76,34.2a1.09,1.09,0,0,1-.9,1.27L34.59,41.14a1.1,1.1,0,0,1-1.28-.89h0a1.1,1.1,0,0,1,.9-1.27l24.27-5.66a1.1,1.1,0,0,1,1.28.88Z"/><path class="cls-2" d="M43.46,13.19c-1.1.22-5.13,2.41-4.85,6l.42-.11c-.29-3,4.29-5.59,4.65-5.84S43.52,13.18,43.46,13.19Z"/><path class="cls-2" d="M37.61,13a2.65,2.65,0,0,1,2.11,2.49,5.33,5.33,0,0,1-.24,2.29,1,1,0,0,1-.6.19,7.09,7.09,0,0,1-2.13-.61,2.88,2.88,0,0,1-1.21-1.15,4.13,4.13,0,0,1-.34-2.43A15.86,15.86,0,0,1,35.68,12S36,12.62,37.61,13Z"/><path class="cls-2" d="M48.58,31.79c-1.89,3-5.12,5.13-10.38,5.19A11.18,11.18,0,0,1,30,34.18l-8.22,1.51,12.48,3.45,24.44-5.85Z"/><path class="cls-2" d="M38.62,19.18c-2.73-4.42-11.9-1.2-11.17,6.52C28,31,30.67,36.17,38.24,36.07,46,36,49,30.78,49.61,25.7,50.61,17.93,41.74,14.55,38.62,19.18Z"/></g></g></svg>