<svg xmlns="http://www.w3.org/2000/svg" viewBox="0 0 62.65 66.25"><defs><style>.cls-1{fill:#f0e9ce;}.cls-2{fill:#004a6b;}</style></defs><g id="Layer_2" data-name="Layer 2"><g id="Layer_1-2" data-name="Layer 1"><path class="cls-1" d="M62.65,40c0,21.38-3.64,11.16-23.5,19.11C0,74.8,0,62.68,0,41.3S20.62-8.8,38.72,2.58C60.91,16.53,62.65,18.64,62.65,40Z"/><path class="cls-2" d="M30.75,61.91s1.82-12,.75-15.6L23.43,35.42l1.31-1.2,7.59,8.65.83-16.37h1.93l.8,10.68,6.64-7.12L44,32l-7,8.42s-1.19,0-.48,8.42,1.31,12.93,1.31,12.93Z"/><path class="cls-2" d="M33.21,24.27s-6.5,1.9-10.24-6.11c0,0,8.44-3.47,10.61,5.18,0,0-4.22-1.55-5.7-2.93C27.88,20.41,31,23.81,33.21,24.27Z"/><path class="cls-2" d="M23.24,33.78s-6.95-.65-7.49-9.75c0,0,9.41-.11,8.2,9,0,0-3.45-3.09-4.34-5C19.61,28.06,21.27,32.48,23.24,33.78Z"/><path class="cls-2" d="M35.23,24.05s.75-7.88,11.06-8.5c0,0,.14,10.68-10.2,9.3,0,0,3.5-3.91,5.63-4.92C41.72,19.93,36.71,21.82,35.23,24.05Z"/><path class="cls-2" d="M44.41,31.69s5.48-6,14.35-.16c0,0-6.48,8.87-14.14,1.35,0,0,5.3-1.05,7.68-.57C52.3,32.31,47,30.77,44.41,31.69Z"/><path class="cls-2" d="M43.32,30.22s-2.7-6.3,4.88-11.06c0,0,4.54,8.06-3.89,11.31,0,0,1-4.43,2.23-6.08C46.54,24.39,43.52,27.91,43.32,30.22Z"/><path class="cls-2" d="M33.87,20.14s-6-6.16.79-15.1c0,0,8.9,7.41.48,15,0,0-.75-5.64-.09-8.11C35.05,11.89,33.07,17.35,33.87,20.14Z"/><path class="cls-2" d="M22.29,36.89s-4.41,5-11.82.37c0,0,5.2-7.42,11.63-1.35,0,0-4.35,1-6.32.6C15.78,36.51,20.17,37.7,22.29,36.89Z"/><path class="cls-2" d="M24.11,39.3s1,6.64-7.42,9.21c0,0-2.24-8.78,6.56-9.7,0,0-2.11,3.92-3.66,5.18C19.59,44,23.34,41.44,24.11,39.3Z"/><path class="cls-2" d="M25.49,34S23.16,29,29.21,25c0,0,3.86,6.44-2.91,9.26a19.82,19.82,0,0,1,1.68-5S25.6,32.16,25.49,34Z"/><path class="cls-2" d="M47.14,61.47s.75-5,.31-6.42l-3.32-4.49.53-.49,3.13,3.73.34-6.57h.8l.33,4.23,2.73-3,.58.74-2.88,3.45s-.48,0-.19,3.45S50,61.4,50,61.4Z"/><path class="cls-2" d="M48.15,46s-2.67.78-4.21-2.52c0,0,3.47-1.43,4.36,2.13A10,10,0,0,1,46,44.39,6.16,6.16,0,0,0,48.15,46Z"/><path class="cls-2" d="M44.05,49.89s-2.86-.27-3.09-4c0,0,3.88-.05,3.38,3.7a10.18,10.18,0,0,1-1.79-2A6.31,6.31,0,0,0,44.05,49.89Z"/><path class="cls-2" d="M49,45.88s.31-3.24,4.56-3.49c0,0,.05,4.39-4.2,3.82a11.5,11.5,0,0,1,2.32-2A7.2,7.2,0,0,0,49,45.88Z"/><path class="cls-2" d="M52.76,49S55,46.55,58.67,49c0,0-2.67,3.66-5.82.56A12.09,12.09,0,0,1,56,49.28,7.34,7.34,0,0,0,52.76,49Z"/><path class="cls-2" d="M52.75,50.52s2.53.76,2.07,4.16c0,0-3.5-.64-2.38-3.93a9.23,9.23,0,0,1,1.24,2.16A5.69,5.69,0,0,0,52.75,50.52Z"/><path class="cls-2" d="M52.31,48.42s-1.11-2.59,2-4.55c0,0,1.87,3.32-1.6,4.66A10,10,0,0,1,53.64,46,6.15,6.15,0,0,0,52.31,48.42Z"/><path class="cls-2" d="M48.43,44.28s-2.46-2.54.32-6.22c0,0,3.66,3,.2,6.16a12.57,12.57,0,0,1,0-3.34S48.1,43.13,48.43,44.28Z"/><path class="cls-2" d="M43.66,51.17s-1.82,2.08-4.87.15c0,0,2.14-3,4.79-.55A9.67,9.67,0,0,1,41,51,6,6,0,0,0,43.66,51.17Z"/><path class="cls-2" d="M44.41,52.16S44.8,54.9,41.35,56c0,0-.92-3.61,2.7-4a9.78,9.78,0,0,1-1.51,2.13S44.09,53,44.41,52.16Z"/><path class="cls-2" d="M45,50s-.95-2.08,1.54-3.74c0,0,1.59,2.65-1.2,3.81A7.9,7.9,0,0,1,46,48,5,5,0,0,0,45,50Z"/></g></g></svg>