<svg xmlns="http://www.w3.org/2000/svg" viewBox="0 0 64.27 62.38"><defs><style>.cls-1{fill:#aee0e8;}.cls-2{fill:#004a6b;}</style></defs><g id="Layer_2" data-name="Layer 2"><g id="Layer_1-2" data-name="Layer 1"><path class="cls-1" d="M50,31.74C22.11,43.23,51.48,62.38,33.16,62.38S0,48.42,0,31.19,14.85,0,33.16,0,66.82,24.83,50,31.74Z"/><path class="cls-2" d="M39.94,26.85c.06.74.11,1.49.16,2.23h-.82l.15-2.23h-2L18.14,58H37.25c.06-.74.11-1.48.16-2.23H42L42.12,58H61.24L42,26.85Zm-.93,6h1.36c.09,1.27.17,2.55.26,3.82H38.74Zm-.53,7.64H40.9l.27,3.82h-3ZM37.68,52c.09-1.27.18-2.54.26-3.82h3.49L41.7,52Z"/><path class="cls-2" d="M37.11,26.85,15.11,58h1.53L37.27,26.85Z"/><path class="cls-2" d="M42.27,26.85h-.16L62.74,58h1.53Z"/></g></g></svg>